<svg xmlns="http://www.w3.org/2000/svg" width="256" height="256" viewBox="0 0 256 256" role="img" aria-label="Custom Fields Framework Pro icon">
  <defs>
    <linearGradient id="bg" x1="0" x2="1" y1="0" y2="1">
      <stop offset="0%" stop-color="#0f4c81"/>
      <stop offset="100%" stop-color="#1cb5a3"/>
    </linearGradient>
  </defs>
  <rect x="12" y="12" width="232" height="232" rx="46" fill="url(#bg)"/>

  <g fill="#ffffff" fill-opacity="0.25">
    <rect x="38" y="56" width="180" height="34" rx="10"/>
    <rect x="38" y="111" width="180" height="34" rx="10"/>
    <rect x="38" y="166" width="180" height="34" rx="10"/>
  </g>

  <g fill="#ffffff">
    <circle cx="58" cy="73" r="8"/>
    <circle cx="58" cy="128" r="8"/>
    <circle cx="58" cy="183" r="8"/>
  </g>

  <g stroke="#ffffff" stroke-width="11" stroke-linecap="round" fill="none">
    <path d="M152 84c-13 0-24 10-24 22v44c0 12-11 22-24 22"/>
    <path d="M104 84c13 0 24 10 24 22v44c0 12 11 22 24 22"/>
  </g>
</svg>
